<svg xmlns="http://www.w3.org/2000/svg" xmlns:xlink="http://www.w3.org/1999/xlink" width="38" height="38" viewBox="0 0 38 38">
  <defs>
    <clipPath id="clip-画板_2">
      <rect width="38" height="38"/>
    </clipPath>
  </defs>
  <g id="画板_2" data-name="画板 – 2" clip-path="url(#clip-画板_2)">
    <path id="联合_91" data-name="联合 91" d="M3.9,19.325a.921.921,0,0,1,.211-.588L4.1,18.725c.14-.18.278-.369.408-.563a10.789,10.789,0,0,0,1.966-6.18A10.6,10.6,0,0,0,1.133,2.726C.825,2.558.515,2.4.211,2.265l0-.011A.925.925,0,1,1,1.109.637c.328.151.655.316.977.492A12.448,12.448,0,0,1,8.355,12a12.67,12.67,0,0,1-2.309,7.258c-.143.214-.3.428-.459.635h0l-.019-.015A.925.925,0,0,1,3.9,19.325Z" transform="translate(23.2 7)" fill="#ccc"/>
  </g>
</svg>
