<svg width="29" height="38" viewBox="0 0 29 38" fill="none" xmlns="http://www.w3.org/2000/svg">
<g opacity="0.1">
<path d="M17.8155 3.65389C17.9786 2.71221 17.809 1.92311 17.3068 1.21747C16.7001 0.365241 15.8509 0 14.6376 0H8.57137L1.4132 25.2016C-2.59052 38.959 11.3618 37.985 11.3618 37.985C11.3618 37.985 23.9796 38.2285 28.1047 23.6189C29.3179 19.3577 29.3179 15.8271 27.9834 13.0269C26.6488 10.3485 24.2223 9.00927 20.9465 9.00927H17.0939L14.1578 19.3577H16.2148C17.0641 19.3577 17.6707 19.6012 17.9134 20.3317C18.2774 21.0622 18.156 22.0362 17.7921 23.3754C17.4281 24.8364 16.8215 25.9321 16.0935 26.6626C15.3656 27.393 14.6376 27.6365 13.667 27.6365C12.8177 27.6365 12.2111 27.2713 11.9685 26.6626C11.7258 26.0538 11.7258 24.9581 12.2111 23.3754L13.3587 19.3577H13.3601L17.8155 3.65389Z" fill="#003A61"/>
<path d="M5.22587 9.00928H2.01981L0.199941 15.3401C-0.448492 17.4006 0.539613 18.9781 2.30674 19.2982L5.22587 9.00928Z" fill="#003A61"/>
</g>
</svg>
