<svg width="20" height="20" viewBox="0 0 20 20" fill="none" xmlns="http://www.w3.org/2000/svg">
<circle cx="10" cy="10" r="9" stroke="#F2F2F2" stroke-width="2"/>
<path d="M7.62865 2.35953C5.88486 2.90075 4.37866 4.02218 3.3602 5.5376C2.34174 7.05301 1.8723 8.87121 2.02983 10.6903C2.18737 12.5093 2.96241 14.2197 4.22624 15.5375C5.49007 16.8552 7.16664 17.701 8.97751 17.9344C10.7884 18.1678 12.6246 17.7746 14.1812 16.8204C15.7379 15.8661 16.9212 14.408 17.5348 12.6883C18.1483 10.9687 18.1552 9.09085 17.5542 7.36675C16.9532 5.64264 15.7805 4.17599 14.2309 3.21035L13.0091 5.17115C14.1112 5.85792 14.9452 6.90101 15.3726 8.12721C15.8 9.35341 15.7952 10.6889 15.3588 11.912C14.9224 13.135 14.0808 14.172 12.9737 14.8507C11.8666 15.5294 10.5607 15.809 9.2728 15.643C7.98489 15.477 6.7925 14.8755 5.89366 13.9383C4.99482 13.0011 4.4436 11.7846 4.33156 10.4909C4.21952 9.1972 4.55339 7.90408 5.27772 6.82631C6.00206 5.74853 7.07328 4.95096 8.31348 4.56605L7.62865 2.35953Z" fill="#3B8CFF"/>
</svg>
