<svg width="94" height="42" viewBox="0 0 94 42" fill="none" xmlns="http://www.w3.org/2000/svg">
<path d="M18.8574 0.106597C18.2178 0.0532981 17.5783 0 16.1392 0C6.81226 0 4.68037 1.59898 4.68037 9.5406H0.523193V16.5228L4.68037 20.7335V36.5102L9.79689 41.6269H17.4184V21.6396H23.9739V14.6574L21.1492 11.8325H23.9739V5.22335L18.8574 0.106597ZM18.8574 11.9391L22.2684 15.3503V19.934H15.7129V39.9213H10.5431L7.13203 36.5102H12.3018V16.5228H18.8574V11.9391ZM18.8574 9.5406H12.3018C12.3018 6.66243 12.3019 6.66243 18.8574 6.71573V2.50508L22.2684 5.91624V10.1269H18.8574V9.5406ZM4.68037 18.7081L2.49519 16.5228H4.68037V18.7081Z" fill="black"/>
<path d="M39.1082 14.6574L33.9917 9.5406H26.4235V28.1954C26.4235 30.4873 26.9565 32.9924 28.662 34.698L33.7252 39.7081C35.2708 41.2538 37.5626 42 42.0395 42C46.783 42 48.3819 41.2005 49.7143 40.2411L51.1 41.6269H58.2951V14.6574L53.1786 9.5406H45.6104V24.6777C45.6104 28.1421 45.1841 29.901 39.1082 29.901V14.6574ZM53.1786 11.9391L56.5896 15.3503V39.9213H51.8462L49.8742 38.0025C47.9555 39.7081 46.3566 40.2944 42.0395 40.2944C38.3087 40.2944 36.017 39.6548 34.8977 38.5355L32.979 36.6167C33.9917 36.7766 34.951 36.8832 36.9763 36.8832C42.3593 36.8832 44.3846 35.8173 45.8769 33.6853L45.9835 36.5102H53.1786V11.9391ZM33.9917 11.9391L37.4027 15.3503V29.7944C35.8571 29.5812 33.9917 29.1548 33.9917 26.5964V11.9391Z" fill="black"/>
<path d="M86.9115 11.566C85.3126 9.9137 82.9142 9.11421 78.4373 9.11421C73.2141 9.11421 71.8284 10.1269 70.7625 10.8731L69.3235 9.5406H62.1283V36.5102L67.2449 41.6269H74.8131V26.4898C74.8131 22.9721 75.2927 21.2665 81.3153 21.2665V36.5102L86.4318 41.6269H94V22.9721C94 20.2538 93.2005 17.9086 91.8148 16.5228L86.9115 11.566ZM88.8835 36.5102V17.8553C88.8835 16.9492 88.8302 16.3629 88.7769 15.8832L90.6423 17.7487C91.4417 18.5482 92.2945 20.2538 92.2945 22.9721V39.9213H87.1247L83.7137 36.5102H88.8835ZM69.6965 21.3731C69.6965 18.335 69.8564 16.1497 75.879 16.1497C80.4626 16.1497 81.3153 17.4822 81.3153 19.5609H80.8356C73.3741 19.5609 73.1076 23.2919 73.1076 26.4898V39.9213H67.9377L64.5267 36.5102H69.6965V21.3731Z" fill="black"/>
<path fill-rule="evenodd" clip-rule="evenodd" d="M28.5243 11.2544C28.8137 11.1032 29.1712 11.2116 29.3229 11.4964L31.0993 14.8327C31.2509 15.1176 31.1393 15.4711 30.85 15.6222C30.5607 15.7734 30.2031 15.6651 30.0515 15.3802L28.2751 12.0439C28.1234 11.7591 28.235 11.4056 28.5243 11.2544Z" fill="white"/>
<path fill-rule="evenodd" clip-rule="evenodd" d="M48.5243 11.2544C48.8137 11.1032 49.1712 11.2116 49.3229 11.4964L51.0993 14.8327C51.2509 15.1176 51.1393 15.4711 50.85 15.6222C50.5607 15.7734 50.2031 15.6651 50.0515 15.3802L48.2751 12.0439C48.1234 11.7591 48.235 11.4056 48.5243 11.2544Z" fill="white"/>
<path fill-rule="evenodd" clip-rule="evenodd" d="M8.50824 8.89876C8.18215 8.91988 7.90181 8.67613 7.88208 8.35433C7.81727 7.29715 7.88957 5.81543 8.71083 4.62286C9.56866 3.3772 11.1336 2.59456 13.7137 2.74247C14.0398 2.76116 14.2874 3.0373 14.2668 3.35925C14.2462 3.6812 13.9652 3.92704 13.6391 3.90835C11.3446 3.77681 10.2449 4.46751 9.68811 5.27604C9.09475 6.13767 9.00244 7.291 9.06294 8.27785C9.08267 8.59964 8.83432 8.87763 8.50824 8.89876Z" fill="white"/>
<path fill-rule="evenodd" clip-rule="evenodd" d="M81.0049 12.5087C81.0468 12.1892 81.3437 11.9636 81.668 12.0049C82.7808 12.1464 84.1347 12.6387 85.0439 13.8057C85.9673 14.9909 86.3407 16.753 85.7197 19.2373C85.6415 19.5501 85.3208 19.7412 85.0032 19.6642C84.6857 19.5872 84.4917 19.2711 84.5699 18.9583C85.1331 16.7048 84.7457 15.339 84.1045 14.516C83.4492 13.6748 82.4347 13.2788 81.5163 13.1619C81.192 13.1207 80.9631 12.8282 81.0049 12.5087Z" fill="white"/>
</svg>
