<svg width="107" height="103" viewBox="0 0 107 103" fill="none" xmlns="http://www.w3.org/2000/svg">
<g clip-path="url(#clip0)">
<path d="M65.4113 84.62L22.3825 76.1862V34.3722L65.4113 41.7572V84.62Z" fill="#7DC4F4"/>
<path d="M65.4113 86C65.3204 86 65.2335 85.9921 65.1466 85.9724L22.1139 77.5425C21.4661 77.4124 21 76.8486 21 76.1862V34.3722C21 33.6112 21.6162 32.9922 22.3825 32.9922C22.4615 32.9922 22.5406 33.0001 22.6196 33.0119L65.6483 40.3969C66.3119 40.5112 66.7978 41.0829 66.7978 41.7572V84.62C66.7899 85.3809 66.1737 86 65.4113 86ZM23.7651 75.0546L64.0288 82.9442V42.9203L23.7651 36.0085V75.0546Z" fill="#040000"/>
<path d="M83.1237 63.3759L65.4113 84.6239V41.7572L83.6175 24.4559L83.1237 63.3759Z" fill="#F07170"/>
<path d="M65.4113 86C64.6489 86 64.0287 85.381 64.0287 84.62V41.7572C64.0287 41.3787 64.1828 41.0199 64.4593 40.7596L82.6694 23.4584C83.2224 22.934 84.0954 22.9537 84.6247 23.5057C84.8736 23.7659 85.0118 24.1129 85.0079 24.4756L84.5141 63.3917C84.5102 63.7071 84.3956 64.0146 84.1942 64.2551L66.4818 85.5032C66.2092 85.8186 65.8221 86 65.4113 86ZM66.7938 42.3486V80.8033L81.749 62.8633L82.1954 27.7088L66.7938 42.3486ZM83.1237 63.3719H83.1276H83.1237Z" fill="#040000"/>
<path d="M65.4113 41.7572L22.3825 34.3722L44.2781 18.38L83.6174 24.4559L65.4113 41.7572Z" fill="#FCE170"/>
<path d="M65.4119 43.1375C65.3329 43.1375 65.2539 43.1296 65.1788 43.1178L22.1501 35.7328C21.3995 35.6027 20.8939 34.889 21.0243 34.136C21.0835 33.785 21.281 33.4696 21.5694 33.2567L43.465 17.2684C43.7612 17.0516 44.1286 16.9609 44.492 17.02L83.8313 23.096C84.5858 23.2103 85.1033 23.9161 84.9848 24.6692C84.9374 24.9728 84.7912 25.2488 84.57 25.4577L66.3638 42.759C66.1071 43.0034 65.7674 43.1375 65.4119 43.1375ZM25.8276 33.5642L64.9576 40.2829L80.6278 25.3907L44.6342 19.8313L25.8276 33.5642Z" fill="#040000"/>
<path d="M65.4113 57.4261C65.3283 57.4261 65.2493 57.4182 65.1664 57.4024L22.1376 49.6705C21.3871 49.5207 20.9052 48.7952 21.0513 48.046C21.1975 47.3205 21.8927 46.8356 22.6274 46.9539L64.9333 54.5596L82.4601 36.6354C83.0091 36.1031 83.8821 36.1189 84.4154 36.6669C84.9249 37.1913 84.9368 38.0272 84.4391 38.5635L66.3988 57.0082C66.1381 57.2763 65.7826 57.4261 65.4113 57.4261Z" fill="#040000"/>
<path d="M65.4113 71.7111C65.3244 71.7111 65.2415 71.7032 65.1546 71.6875L22.1258 63.6046C21.3753 63.4627 20.8815 62.7411 21.0237 61.992C21.1659 61.2428 21.8888 60.75 22.6393 60.8919L64.8978 68.8328L82.2586 49.296C82.7642 48.7243 83.6372 48.673 84.21 49.1777C84.7828 49.6824 84.8341 50.5538 84.3245 51.1255L66.4463 71.2459C66.1816 71.5455 65.8063 71.7111 65.4113 71.7111Z" fill="#040000"/>
<path d="M36.7255 80.3775C35.9631 80.3775 35.3429 79.7584 35.3429 78.9975V36.8365C35.3429 36.3988 35.5483 35.9888 35.8999 35.7285L57.7994 19.4879C58.4275 19.0502 59.2886 19.204 59.7231 19.8309C60.1418 20.4302 60.0194 21.2504 59.4466 21.7038L38.108 37.5265V78.9975C38.108 79.7624 37.4878 80.3775 36.7255 80.3775Z" fill="#040000"/>
<path d="M51.0684 83.1887C50.306 83.1887 49.6859 82.5697 49.6859 81.8087V39.2968C49.6859 38.8631 49.8873 38.457 50.2349 38.1968L72.1305 21.7117C72.7467 21.2622 73.6118 21.3923 74.0621 22.0074C74.5045 22.6107 74.386 23.4584 73.7935 23.9157L52.4509 39.9829V81.8087C52.4509 82.5697 51.8308 83.1887 51.0684 83.1887Z" fill="#040000"/>
<path d="M71.9448 78.1616C71.1825 78.1616 70.5623 77.5426 70.5623 76.7816V36.734L29.4375 30.4294C28.683 30.315 28.1655 29.6093 28.2801 28.8562C28.3947 28.1031 29.1017 27.5866 29.8562 27.7009L72.1542 34.1869C72.8297 34.2894 73.3274 34.869 73.3274 35.5511V76.7855C73.3274 77.5426 72.7072 78.1616 71.9448 78.1616Z" fill="#040000"/>
<path d="M77.712 71.2458C76.9496 71.2458 76.3295 70.6268 76.3295 69.8658V31.2495L36.7492 25.0868C35.9947 24.9685 35.4812 24.2628 35.5957 23.5097C35.7142 22.7566 36.4173 22.244 37.1718 22.3584C37.1718 22.3584 37.1718 22.3584 37.1758 22.3584L77.9253 28.7064C78.5968 28.8128 79.0945 29.3885 79.0945 30.0706V69.8658C79.0945 70.6268 78.4744 71.2419 77.712 71.2458Z" fill="#040000"/>
</g>
<defs>
<clipPath id="clip0">
<rect width="64" height="69" fill="white" transform="translate(21 17)"/>
</clipPath>
</defs>
</svg>
