<svg width="107" height="103" viewBox="0 0 107 103" fill="none" xmlns="http://www.w3.org/2000/svg">
<g clip-path="url(#clip0)">
<path d="M37.0926 25.5265L23.0363 43.7256L53.4662 80.8518L84.9391 43.5686L69.9288 25.5265H37.0926Z" fill="#FC8B68"/>
<path d="M85.6183 39.968L74.3953 25.5407C73.1388 23.9278 71.2487 23 69.2055 23H38.3698C36.3943 23 34.5434 23.8778 33.2904 25.4051L21.4943 39.7789C19.4868 42.2268 19.501 45.7703 21.5299 48.2004L48.5855 80.6341C49.7601 82.0401 51.4473 82.8751 53.2591 82.9786C53.3196 82.9857 53.3801 82.9929 53.4442 82.9964H53.4655C53.4798 82.9964 53.4905 82.9929 53.5011 82.9929C53.5439 82.9929 53.5866 83 53.6293 83H53.6435C55.6012 82.9964 57.4415 82.1257 58.6944 80.6163L85.4937 48.2397C87.4514 45.8702 87.5048 42.3946 85.6183 39.968ZM71.0244 28.1743L81.6637 41.8521H68.6681L58.3313 27.2857H69.2055C69.921 27.2857 70.5866 27.6104 71.0244 28.1743ZM53.5261 74.714L43.2392 46.1343H64.4608L53.5261 74.714ZM44.4708 41.8521L54.2024 28.8523L63.4285 41.8521H44.4708ZM36.5865 28.1279C37.0243 27.5926 37.6793 27.2857 38.3698 27.2857H50.0342L39.1315 41.8521H25.3243L36.5865 28.1279ZM25.3706 46.1343H38.6973L48.8133 74.2323L25.3706 46.1343ZM58.1676 74.5463L69.0382 46.1343H81.6851L58.1676 74.5463Z" fill="#040000"/>
</g>
<defs>
<clipPath id="clip0">
<rect width="67" height="60" fill="white" transform="translate(20 23)"/>
</clipPath>
</defs>
</svg>
