<svg width="107" height="103" viewBox="0 0 107 103" fill="none" xmlns="http://www.w3.org/2000/svg">
<g clip-path="url(#clip0)">
<path d="M62.3055 66.084V77.1098C62.3055 77.8631 61.7001 78.4591 60.9444 78.4591H46.0389C45.279 78.4591 44.6778 77.859 44.6778 77.1098V66.084C44.6778 65.517 44.3355 65.0327 43.8052 64.8051C34.386 60.8277 27.952 51.1925 28.8622 40.208C29.8517 28.2427 39.6425 18.6489 51.713 17.7839C66.1634 16.774 78.2339 28.0978 78.2339 42.2278C78.2339 52.3472 72.0296 61.0553 63.1823 64.7968C62.6395 65.041 62.3055 65.5253 62.3055 66.084Z" fill="#F9BC52"/>
<path d="M60.9455 80.2229H46.04C44.3031 80.2229 42.9002 78.8322 42.9002 77.1105V66.3495C32.4956 61.8465 26.1827 51.3132 27.0888 40.0638C28.1075 27.2748 38.6666 16.9692 51.6014 16.071C59.0541 15.5454 66.1227 18.0163 71.5714 23.045C76.9448 27.9909 80.0053 35.0103 80.0053 42.2822C80.0053 52.7411 73.7675 62.1941 64.1186 66.3537V77.1063C64.0852 78.8405 62.6823 80.2229 60.9455 80.2229ZM46.4533 76.6966H60.5613V66.0846C60.5613 64.8471 61.3212 63.6841 62.4945 63.1999C70.9659 59.6032 76.4563 51.3877 76.4563 42.2781C76.4563 35.9829 73.8051 29.903 69.1581 25.6276C64.4276 21.2777 58.3026 19.1462 51.8393 19.589C40.6415 20.3423 31.527 29.2987 30.621 40.366C29.8319 50.1874 35.3849 59.3797 44.4993 63.204C45.6726 63.6883 46.4325 64.814 46.4325 66.0888V76.7007L46.4533 76.6966Z" fill="#040000"/>
<path d="M48.7611 71.8618C47.7758 71.8618 46.9825 71.0795 46.9825 70.0986V56.2294C46.9825 52.7445 44.1058 49.8929 40.5903 49.8929C39.6049 49.8929 38.8116 49.1106 38.8116 48.1297C38.8116 47.153 39.6008 46.3666 40.5903 46.3666C46.0765 46.3666 50.5398 50.7868 50.5398 56.2294V70.1028C50.5398 71.0712 49.7465 71.8618 48.7611 71.8618ZM56.9738 71.8618C55.9884 71.8618 55.1951 71.0795 55.1951 70.0986V56.2294C55.1951 50.791 59.6542 46.3666 65.1446 46.3666C66.13 46.3666 66.9233 47.1488 66.9233 48.1297C66.9233 49.1065 66.1342 49.8929 65.1446 49.8929C61.6291 49.8929 58.7524 52.7445 58.7524 56.2294V70.1028C58.7524 71.0712 57.9508 71.8618 56.9738 71.8618Z" fill="#040000"/>
<path d="M65.1447 62.7108H41.8387C39.8346 62.7108 38.2104 64.3208 38.2104 66.3075C38.2104 68.2941 39.8346 69.9041 41.8387 69.9041H65.1363C67.1404 69.9041 68.7646 68.2941 68.7646 66.3075C68.7729 64.3208 67.1404 62.7108 65.1447 62.7108Z" fill="#56D0A6"/>
<path d="M65.1447 71.6383H41.8387C38.8534 71.6383 36.4318 69.2377 36.4318 66.2785C36.4318 63.3192 38.8534 60.9187 41.8387 60.9187H65.1363C68.1216 60.9187 70.5432 63.3192 70.5432 66.2785C70.5516 69.2336 68.1299 71.6383 65.1447 71.6383ZM41.8387 64.474C40.82 64.474 39.9891 65.2976 39.9891 66.3075C39.9891 67.3173 40.82 68.141 41.8387 68.141H65.1363C66.1551 68.141 66.9859 67.3173 66.9859 66.3075C66.9859 65.2976 66.1551 64.474 65.1363 64.474H41.8387Z" fill="#040000"/>
<path d="M63.3994 69.8751H43.5839C41.5798 69.8751 39.9556 71.4851 39.9556 73.4718C39.9556 75.4584 41.5798 77.0684 43.5839 77.0684H63.4077C65.4118 77.0684 67.036 75.4584 67.036 73.4718C66.9942 71.481 65.3659 69.8751 63.3994 69.8751Z" fill="#56D0A6"/>
<path d="M63.3994 78.8398H43.5839C40.5986 78.8398 38.177 76.4393 38.177 73.48C38.177 70.5208 40.5986 68.1202 43.5839 68.1202H63.4077C66.393 68.1202 68.8146 70.5208 68.8146 73.48C68.7729 76.4393 66.3513 78.8398 63.3994 78.8398ZM43.5839 71.6382C42.5651 71.6382 41.7343 72.4619 41.7343 73.4717C41.7343 74.4816 42.5651 75.3052 43.5839 75.3052H63.4077C64.4265 75.3052 65.2574 74.4816 65.2574 73.4717C65.2574 72.4619 64.4265 71.6382 63.4077 71.6382H43.5839Z" fill="#040000"/>
<path d="M59.1992 77.0767H47.7758C45.7717 77.0767 44.1476 78.6867 44.1476 80.6733C44.1476 82.6599 45.7717 84.2699 47.7758 84.2699H59.1992C61.2033 84.2699 62.8274 82.6599 62.8274 80.6733C62.794 78.6867 61.1741 77.0767 59.1992 77.0767Z" fill="#56D0A6"/>
<path d="M59.1992 86H47.7758C44.7905 86 42.3689 83.5995 42.3689 80.6402C42.3689 77.681 44.7905 75.2805 47.7758 75.2805H59.1992C62.1844 75.2805 64.6061 77.681 64.6061 80.6402C64.5727 83.5995 62.151 86 59.1992 86ZM47.7758 78.8399C46.7571 78.8399 45.9262 79.6635 45.9262 80.6734C45.9262 81.6832 46.7571 82.5069 47.7758 82.5069H59.1992C60.2179 82.5069 61.0488 81.6832 61.0488 80.6734C61.0488 79.6635 60.2179 78.8399 59.1992 78.8399H47.7758ZM58.1053 39.7611C58.1053 41.2966 59.362 42.5341 60.9026 42.5341C62.4516 42.5341 63.7 41.2883 63.7 39.7611C63.7 38.2255 62.4433 36.988 60.9026 36.988C59.362 36.988 58.1053 38.2255 58.1053 39.7611ZM42.1059 39.7611C42.1059 41.2966 43.3626 42.5341 44.9033 42.5341C46.4523 42.5341 47.7007 41.2883 47.7007 39.7611C47.7007 38.2255 46.4439 36.988 44.9033 36.988C43.3543 36.988 42.1059 38.2255 42.1059 39.7611ZM50.1223 39.7611C50.1223 41.2966 51.3707 42.5341 52.9197 42.5423C54.4687 42.5423 55.7171 41.3048 55.7254 39.7693V39.7611C55.7254 38.2255 54.4687 36.988 52.928 36.988C51.379 36.988 50.1223 38.2255 50.1223 39.7611Z" fill="#040000"/>
</g>
<defs>
<clipPath id="clip0">
<rect width="53" height="70" fill="white" transform="translate(27 16)"/>
</clipPath>
</defs>
</svg>
